<svg clip-rule="evenodd" fill-rule="evenodd" stroke-linecap="round" stroke-linejoin="round" viewBox="0 0 966.822 975.733" xmlns="http://www.w3.org/2000/svg"><g fill="#272330"><path d="m301.755 712.216c-9.37 14.483-53.738 8.087-70.856 8.087-73.106 0-166.2285-100.512-134.1216-174.172 4.2716-9.8 15.7576-25.07 26.5716-28.614 24.19-7.928 86.704-6.811 106.284 12.441 38.144 37.504 96.572 102.893 80.979 164.219-1.789 7.037-5.298 12.538-8.857 18.039z"/><path d="m342.755 438.421c-15.535-2.265-29.405-8.297-43.653-13.685-42.609-16.113-78.073-31.67-101.223-73.401-19.727-35.559-5.708-100.971 30.367-120.676 26.99-14.743 52.078 5.384 72.121 21.149 41.235 32.435 76.74 79.931 87.306 131.873 5.81 28.565-13.009 59.392-44.918 54.74z"/><path d="m499.304 76.5525c-1.893.9305-13.13 2.8708-16.449 4.3543-8.208 3.6682-8.132 3.7124-15.184 9.9527-18.215 16.1195-25.305 37.2135-25.305 60.9605 0 21.339-1.766 43.829 1.265 64.692 6.42 44.19 49.508 117.125 103.754 108.235 28.109-4.606 38.519-32.939 45.551-55.983 13.976-45.808 26.844-111.7-12.653-150.535-19.604-19.2745-47.086-58.3388-80.979-41.6765z"/><path d="m766.831 355.778c-10.831.235-24.127-49.633-27.204-59.716-15.268-50.041 17.088-158.084 91.102-126.896 53.663 22.613 58.257 143.828 26.571 185.368-11.704 15.344-41.767 31.1-62 26.126-5.918-1.455-17.523-5.97-21.51-11.197-2.353-3.085-6.689-13.69-6.959-13.685z"/><path d="m455.575 478.167c-1.534-5.129-30.104 37.9-31.63 40.302-18.418 29.015-30.383 62.607-37.387 96.296-20.42 98.225-28.805 260.466 67.97 320.218 33.44 20.647 111.259 36.035 147.054 15.894 15.341-8.632 18.57-22.586 25.965-37.115 17.217-33.828 23.586-72.812 34.854-109.191 8.126-26.237 10.454-53.877 33.667-71.114 19.377-14.389 46.435-13.82 69.094-14.621 4.626-.163 16.9 5.477 19.716 3.958 9.182-4.953 19.281-1.584 30.442-2.224 41.532-2.384 88.351-5.788 109.569-47.479 3.384-6.649 9.265-11.945 11.401-19.421 5.232-18.314 3.129-37.606 2.967-56.469-.876-102.073-81.792-143.043-166.922-157.569-23.217-3.962-44.39-17.964-68.179-19.943-20.326-1.691-41.515-2.929-61.462-6.333-27.289-4.657-55.605 5.442-81.98 9.158-7.303 1.028-14.403 6.551-21.742 6.973-10.84.622-26.472 4.93-35.819 10.802-11.028 6.929-24.503 11.74-34.034 21.197-3.525 3.497-7.289 5.954-10.209 10.128-1.107 1.583-3.308 6.642-3.335 6.553z"/></g></svg>